<svg xmlns="http://www.w3.org/2000/svg" xmlns:xlink="http://www.w3.org/1999/xlink" width="18.192" height="18.137" viewBox="0 0 18.192 18.137">
  <defs>
    <clipPath id="clip-path">
      <rect id="Rectangle_38377" data-name="Rectangle 38377" width="18.192" height="18.137" fill="#b39d74"/>
    </clipPath>
  </defs>
  <g id="Group_107845" data-name="Group 107845" clip-path="url(#clip-path)">
    <path id="Path_67625" data-name="Path 67625" d="M18.187,6.755H0C0,6.217-.006,5.69.012,5.164c0-.071.122-.158.206-.2Q2.144,3.867,4.075,2.784,6.487,1.425,8.9.063A.335.335,0,0,1,9.28.057q3.09,1.751,6.189,3.485c.826.464,1.65.93,2.48,1.386a.409.409,0,0,1,.243.426c-.017.461-.005.924-.005,1.4M16.873,5.636c-.109-.069-.148-.1-.189-.118Q12.958,3.424,9.228,1.337a.357.357,0,0,0-.294.017Q5.559,3.232,2.192,5.124c-.273.153-.541.315-.864.5H7.264a2.04,2.04,0,0,1,.684-2.455,1.893,1.893,0,0,1,2.222-.046,2.013,2.013,0,0,1,.751,2.51ZM9.95,4.8a.86.86,0,0,0-.836-.867A.858.858,0,1,0,9.95,4.8" transform="translate(-0.001 0)" fill="#b39d74"/>
    <path id="Path_67626" data-name="Path 67626" d="M15.15,75.378v-1.09l.548-.026V69.74h1.109v4.52H19.68V69.742h1.109v4.517h3.443V69.744h1.107v4.513h2.884v-4.52h1.108v4.526h.549v1.115Z" transform="translate(-13.425 -61.797)" fill="#b39d74"/>
    <rect id="Rectangle_38375" data-name="Rectangle 38375" width="18.149" height="1.088" transform="translate(0.016 17.048)" fill="#b39d74"/>
    <rect id="Rectangle_38376" data-name="Rectangle 38376" width="16.441" height="1.088" transform="translate(0.869 14.771)" fill="#b39d74"/>
  </g>
</svg>
